#!OML:ASF F:\VICON\USERDATA\INSTALL\rory3\rory3.ASF
:FULLY-SPECIFIED
:DEGREES
39
root -0.6094367567372194 17.852339202890445 14.96673068038687 5.558139743205873 -2.3460585670179808 -7.0654116889882275
lfemur -44.26171806592068 -1.1965601466444167 -11.090241888467679
ltibia 41.648403919872266
lfoot -2.110854801229362 1.5104191946706864
ltoes -12.513250957936034
rfemur 11.170127511816876 5.4453449633573445 37.893420965936805
rtibia 38.1934719828985
rfoot -13.48491774036947 -7.104488609292864
rtoes 2.800467723486011
lowerback 14.356371439776252 2.7903783631865764 7.73804632762098
upperback -1.4061303617576906 5.11813457464674 2.5059800827860705
thorax -9.363720080194087 2.1292827242605985 -4.009823368963214
lowerneck -21.54618209867047 -4.589771503448736 -1.577057130781836
upperneck 13.079692922580119 -6.409573097436574 2.952356479911467
head 7.6311486597438165 -2.7860888847376706 0.506889754350352
lclavicle -2.087644550853638e-15 1.5233706817075748e-15
lhumerus -66.98737931043806 -12.190865967572275 99.88061467569754
lradius 108.03955432655333
lwrist 34.342761234266206
lhand -25.25535414242922 1.2568341491399444
lfingers 7.12502
lthumb 1.264939631275919 31.227776488309193
rclavicle -2.087644550853638e-15 1.5233706817075748e-15
rhumerus -35.07258548374239 17.984183539726562 -101.51998761548293
rradius 116.27648530423704
rwrist -13.87552736781287
rhand -17.9284823946279 40.44600552647955
rfingers 7.12502
rthumb 8.339043909527128 10.850867913723556
40
root -0.5436551294876838 17.50637452152059 16.47777029066501 6.369977329765161 -2.940472489995645 -7.130495405343446
lfemur -42.71752660730691 -4.974607312089609 -10.474763072270566
ltibia 26.842980995147677
lfoot -0.7764544085867593 2.0236062525513647
ltoes -12.463966288631763
rfemur 16.719348072398187 5.647303265705096 37.852718934927935
rtibia 36.56477916693028
rfoot -14.847455449517062 -5.985136194143577
rtoes -5.306881611005656
lowerback 13.563410224779052 3.071653591250913 7.90374290804894
upperback -1.630034697293402 5.503964002345304 2.410875635589659
thorax -9.175246496755431 2.2955819392216568 -4.26589089343537
lowerneck -21.91486366027899 -4.6849852550284306 -1.5250188084675618
upperneck 12.855417955898353 -6.584632085133564 3.0553402301788735
head 7.60938968449551 -2.843394033508677 0.5150590123942452
lclavicle -2.1190889812558347e-15 1.5005630021430522e-15
lhumerus -68.88217430145787 -10.60132060552877 99.24543963929283
lradius 104.89648128127105
lwrist 33.01780197114014
lhand -25.203141240538816 1.701989317483587
lfingers 7.12502
lthumb 1.3153855557008935 31.67254317421306
rclavicle -2.1190889812558347e-15 1.5005630021430522e-15
rhumerus -33.166741388714996 18.27597257857909 -101.65175610989176
rradius 117.66501496886691
rwrist -14.089872131568569
rhand -18.230848083059016 40.83051504127473
rfingers 7.12502
rthumb 8.047183988247735 11.174508499760748
41
root -0.49084249164243887 17.19088521336785 16.492609520661176 6.371334693572679 -3.245658206229836 -6.973210333150266
lfemur -42.0382602581077 -6.270298878942089 -11.514294232623046
ltibia 20.869824605691257
lfoot 0.750373239310544 0.03864065068984601
ltoes -12.467479469309595
rfemur 19.697498728994706 5.298736359709983 36.89068192133067
rtibia 38.0966791030591
rfoot -13.514058786133395 -3.764890414805483
rtoes -14.16584339364563
lowerback 12.959953230649258 3.1171795860323157 7.406464603850462
upperback -1.796809922218908 5.4805115944634455 2.0990788564403995
thorax -9.091235306900602 2.296926609590603 -4.349282361817735
lowerneck -21.94210907381582 -4.9544667983476725 -1.5455443992903526
upperneck 12.742748014883981 -7.018596748802228 3.183077968780712
head 7.58056771820611 -3.019933155568299 0.5324061826144
lclavicle -3.2851090189068964e-15 6.548103639154689e-16
lhumerus -71.09068926879097 -8.977561587940748 97.93489584440866
lradius 101.02570570537074
lwrist 31.021669429127595
lhand -24.899899820224814 2.054266021225917
lfingers 7.12502
lthumb 1.6082518381798812 32.02675662704838
rclavicle -3.2851090189068964e-15 6.548103639154689e-16
rhumerus -33.45108010937827 17.205175226686247 -101.72299329048359
rradius 117.88521596707588
rwrist -13.970359137066367
rhand -18.530514179981914 40.94130530281046
rfingers 7.12502
rthumb 7.757950115591836 11.205718080456357
42
root -0.3962759501631039 17.045440806815233 18.200119594017085 5.777492409299722 -2.834792613529773 -6.256450873109654
lfemur -40.17879743448676 -5.2739925554964024 -13.354135991333283
ltibia 24.78240021891862
lfoot 3.60372100492179 -2.9793373365750044
ltoes -10.887447935750737
rfemur 21.719886567997985 4.488642562008429 35.62011720580156
rtibia 46.085797666678765
rfoot -5.949338038064427 -0.02586473035881287
rtoes -18.124446783807453
lowerback 12.660203613887308 3.1533947596449234 6.781756348249015
upperback -1.870682362598187 5.425106899992959 1.7303501287399534
thorax -9.043049187220095 2.286722830513636 -4.06130185504437
lowerneck -21.5766385050665 -5.29707444177223 -1.5777562964098408
upperneck 12.897940854173967 -7.532025759222236 3.3814894799524735
head 7.590779491311967 -3.243847826199601 0.5794894066180948
lclavicle -2.7117979139949257e-15 1.07065174526453e-15
lhumerus -72.4361284104625 -6.857507206319825 96.39849738170517
lradius 97.66169576866827
lwrist 28.968410949974647
lhand -24.09463608971862 2.6612654611333966
lfingers 7.12502
lthumb 2.38592099731855 32.633307778172124
rclavicle -2.7117979139949257e-15 1.07065174526453e-15
rhumerus -34.65558670988237 15.906411954891633 -101.31744868780183
rradius 117.87043804164239
rwrist -13.580789410678479
rhand -18.587191522541968 40.94159632078317
rfingers 7.12502
rthumb 7.703252843591248 11.156187898752263
43
root -0.2814637040509049 17.072159427985852 19.89775089051963 4.697300613192804 -2.3650580989154744 -5.293688546178142
lfemur -38.507250409581594 -3.483650636860327 -16.042998661092703
ltibia 32.50328205269082
lfoot 5.274572681998639 -6.1558119522395085
ltoes -8.85260039241562
rfemur 20.260528947359493 2.9630793867503935 33.63995388902073
rtibia 59.205787992761095
rfoot 7.875339293442069 3.576693141115288
rtoes -13.536249683010873
lowerback 12.599752497380267 3.1568417515929994 5.812988365706372
upperback -1.9287815076288426 5.285098004121119 1.2160835623550494
thorax -9.09625215483589 2.2459170041979157 -3.704611900224539
lowerneck -21.035133732780757 -5.638274430703451 -1.6477371605761786
upperneck 13.223316996602454 -8.043995253339032 3.5717789497398256
head 7.628815480023721 -3.4677847163900797 0.6328978805889997
lclavicle -2.5174735931400865e-15 1.2116015624103104e-15
lhumerus -73.76316520822377 -5.077909749777255 94.87101660821934
lradius 94.92130072594276
lwrist 27.52590774398756
lhand -23.131415845438053 3.3464214539300157
lfingers 7.12502
lthumb 3.3161100386686932 33.313608027781804
rclavicle -2.5174735931400865e-15 1.2116015624103104e-15
rhumerus -37.200076107795326 14.22876895540079 -100.850665366895
rradius 117.36720062404962
rwrist -13.122610175070331
rhand -18.4391058888581 40.74214018948533
rfingers 7.12502
rthumb 7.84619308788285 10.947743327096353
44
root -0.14941989691813 17.261785673169122 21.650973280395185 3.4857630853971515 -2.2004615933204135 -4.024886786802099
lfemur -35.28457027994615 -1.954502578708164 -18.99492791103024
ltibia 40.14054948128442
lfoot 4.878297429432312 -7.876089919734387
ltoes -6.36856359734937
rfemur 14.65955415154313 1.0779513383577937 31.175116753667055
rtibia 78.18416607277948
rfoot 25.295240282710495 5.428176038914507
rtoes 0.8084887801197431
lowerback 12.985186543774049 3.1777627956267502 4.536972164016386
upperback -1.8825280759500576 5.135285834396685 0.6322085747770507
thorax -9.261026164286585 2.2066098648264276 -3.1234420267055576
lowerneck -20.594446181691165 -5.6644569445502695 -1.7116515950873765
upperneck 13.573353761098703 -8.131375216561063 3.7431994170204916
head 7.6873224038635914 -3.4829370509315662 0.7028452784561311
lclavicle -1.9829451832544087e-15 1.599312581044778e-15
lhumerus -73.83183804334952 -4.027751770895689 93.88938019720705
lradius 93.70527920462197
lwrist 27.517679480207928
lhand -22.49931024522251 3.9813717237043096
lfingers 7.12502
lthumb 3.9265192162275104 33.93985569733544
rclavicle -1.9829451832544087e-15 1.599312581044778e-15
rhumerus -40.2048935680763 12.527547242336436 -100.36023127528432
rradius 116.311136574302
rwrist -12.47672616169665
rhand -17.988961322557575 40.47754748144207
rfingers 7.12502
rthumb 8.280645636696978 10.689474245075374
45
root -0.039124016757882574 17.503055737632053 22.905559809592532 2.365386413103053 -2.4784164851846473 -2.715687040453703
lfemur -30.55387007122203 -1.3675353129356844 -21.849489249171683
ltibia 44.0099459955632
lfoot 1.5748722191461177 -7.5861222549691725
ltoes -4.4638413696741255
rfemur 4.333192214781906 -1.0233757398539283 28.4559072768224
rtibia 99.35601898637657
rfoot 38.06099906070975 3.6199623714389295
rtoes 18.226310167781417
lowerback 13.809333678695287 3.09741355069613 2.9817191969428123
upperback -1.6489603603083793 4.819396311477593 0.10404868158156866
thorax -9.5029522892076 2.100567687326648 -2.3749846978718145
lowerneck -20.508627062960493 -5.153865054439245 -1.7787689866973926
upperneck 13.633378969219956 -7.467485208361824 3.7981963874418803
head 7.704704130204292 -3.1445785810786075 0.7708471431180092
lclavicle -1.9120125034442965e-15 1.650762388068955e-15
lhumerus -72.30858745617888 -4.425487671830519 93.96557711084026
lradius 94.38113358047465
lwrist 29.13480986668796
lhand -22.964742446627927 3.6607508195759477
lfingers 7.12502
lthumb 3.4770245259678756 33.616520983122115
rclavicle -1.9120125034442965e-15 1.650762388068955e-15
rhumerus -43.05699886323906 10.795038522061823 -99.92855991216406
rradius 114.43886243538195
rwrist -11.61765102287089
rhand -17.346028379163034 40.116388655409686
rfingers 7.12502
rthumb 8.901151384065175 10.331193404460446
46
root 0.0434799469138378 17.7108799220189 24.488123746656747 1.4662050181430164 -2.6025476799513014 -1.556183201711472
lfemur -24.692853587740117 -1.5414002476139965 -24.158984862328104
ltibia 45.153059299954755
lfoot -3.036292253136247 -5.972444096482389
ltoes -3.067467975653762
rfemur -7.969188124158263 -3.352303904889147 26.17228759964427
rtibia 118.66450073419281
rfoot 39.861106478846104 -0.7047588256978052
rtoes 28.575421048422577
lowerback 14.782858332909516 2.8368392366185056 1.5403555837591232
upperback -1.236956791089278 4.267980257085726 -0.1932020910353538
thorax -9.700008328600337 1.8908952798340772 -1.4670551715377318
lowerneck -20.535695055489146 -4.221797941525753 -1.8194193301838488
upperneck 13.453877464059827 -6.17464332165122 3.6885733555763887
head 7.670995045264993 -2.533872178457978 0.8153829864930292
lclavicle -1.7244167803079965e-15 1.7868317321584244e-15
lhumerus -69.03591876857936 -5.839654033123061 94.96495929583962
lradius 96.13506010255645
lwrist 31.069939282327162
lhand -24.1234457120479 2.476263897988027
lfingers 7.12502
lthumb 2.358052636850785 32.43717689610877
rclavicle -1.7244167803079965e-15 1.7868317321584244e-15
rhumerus -45.03804340317471 9.132269448146866 -99.52046991211112
rradius 112.18087661405345
rwrist -10.525463268586487
rhand -16.694820884935186 39.69044160312737
rfingers 7.12502
rthumb 9.529641905086967 9.885519408585399
